<svg width="24" height="16" viewBox="0 0 24 16" fill="none" xmlns="http://www.w3.org/2000/svg">
<g clip-path="url(#clip0_9594_757)">
<path d="M-0.000244141 0H23.9998V16H-0.000244141V0Z" fill="#FAD201"/>
<path d="M-0.000244141 0H23.9998V8H-0.000244141V0Z" fill="#00A3E0"/>
<path d="M-0.000244141 12H23.9998V16H-0.000244141V12Z" fill="#20603D"/>
<path d="M19.692 1.6001L19.7965 3.39148L20.361 1.6881L19.9982 3.44564L20.9843 1.94641L20.1791 3.5501L21.5196 2.35717L20.3267 3.69764L21.9303 2.89241L20.4311 3.87856L22.1887 3.51579L20.4853 4.08025L22.2767 4.18471L20.4853 4.28917L22.1887 4.85364L20.4311 4.49087L21.9303 5.47702L20.3267 4.67179L21.5196 6.01225L20.1791 4.81933L20.9843 6.42302L19.9982 4.92379L20.361 6.68133L19.7965 4.97794L19.692 6.76933L19.5876 4.97794L19.0231 6.68133L19.3859 4.92379L18.3997 6.42302L19.205 4.81933L17.8645 6.01225L19.0574 4.67179L17.4537 5.47702L18.953 4.49087L17.1954 4.85364L18.8988 4.28917L17.1074 4.18471L18.8988 4.08025L17.1954 3.51579L18.953 3.87856L17.4537 2.89241L19.0574 3.69764L17.8645 2.35717L19.205 3.5501L18.3997 1.94641L19.3859 3.44564L19.0231 1.6881L19.5876 3.39148L19.692 1.6001Z" fill="#E5BE01"/>
<path d="M19.6921 4.93836C20.1084 4.93836 20.4459 4.60085 20.4459 4.18451C20.4459 3.76817 20.1084 3.43066 19.6921 3.43066C19.2757 3.43066 18.9382 3.76817 18.9382 4.18451C18.9382 4.60085 19.2757 4.93836 19.6921 4.93836Z" stroke="#00A3E0" stroke-width="0.0923077"/>
</g>
<defs>
<clipPath id="clip0_9594_757">
<rect width="24" height="16" fill="white" transform="translate(-0.000244141)"/>
</clipPath>
</defs>
</svg>
